<?xml version="1.0" standalone="no"?>
<!DOCTYPE svg PUBLIC "-//W3C//DTD SVG 20010904//EN"
 "http://www.w3.org/TR/2001/REC-SVG-20010904/DTD/svg10.dtd">
<svg version="1.0" xmlns="http://www.w3.org/2000/svg"
 width="512.000000pt" height="512.000000pt" viewBox="0 0 512.000000 512.000000"
 preserveAspectRatio="xMidYMid meet">
<metadata>
Created by potrace 1.14, written by Peter Selinger 2001-2017
</metadata>
<g transform="translate(0.000000,512.000000) scale(0.100000,-0.100000)"
fill="#000000" stroke="none">
<path d="M312 4434 c-118 -27 -219 -109 -275 -223 l-32 -66 -3 -1561 c-2
-1687 -5 -1601 48 -1704 45 -88 173 -179 276 -197 62 -11 4437 -10 4484 1 97
23 203 102 253 188 60 100 57 22 57 1693 0 1368 -2 1537 -16 1586 -39 132
-129 228 -260 275 -46 16 -175 17 -2267 18 -1556 1 -2232 -2 -2265 -10z m4481
-277 c15 -9 34 -32 44 -50 16 -30 17 -135 17 -1547 1 -1501 0 -1516 -20 -1550
-11 -19 -35 -43 -54 -52 -33 -17 -160 -18 -2220 -18 -2060 0 -2187 1 -2220 18
-22 10 -43 32 -55 57 -20 39 -20 60 -20 1550 1 1492 1 1511 21 1545 11 19 35
43 54 53 33 16 155 17 2230 15 2077 -3 2197 -4 2223 -21z"/>
<path d="M2390 3769 c-392 -70 -689 -337 -806 -724 -25 -83 -28 -104 -28 -265
-1 -182 6 -226 55 -358 118 -323 408 -571 749 -641 91 -19 303 -22 375 -6 17
3 48 10 71 15 224 50 475 230 604 433 69 110 127 255 145 367 4 25 9 54 11 65
3 11 4 67 4 125 0 428 -282 818 -690 953 -157 52 -330 65 -490 36z m365 -220
c110 -26 250 -102 346 -187 119 -106 225 -300 247 -451 9 -62 9 -225 -1 -282
-31 -193 -166 -399 -340 -518 -153 -105 -381 -158 -553 -131 -98 16 -113 20
-183 49 -262 107 -442 323 -496 596 -18 90 -13 260 10 345 21 78 74 195 117
259 50 72 168 182 248 229 97 58 230 102 333 109 45 3 83 6 84 8 5 4 140 -15
188 -26z"/>
<path d="M2270 3341 c-19 -10 -45 -36 -57 -57 l-23 -39 3 -482 c2 -469 3 -482
23 -509 35 -47 69 -67 116 -67 56 0 64 4 356 196 136 90 284 187 330 216 120
78 155 148 118 234 -7 18 -26 44 -42 58 -40 36 -655 436 -698 454 -47 20 -84
19 -126 -4z m355 -391 c113 -74 220 -145 237 -157 l30 -22 -104 -67 c-56 -37
-163 -107 -237 -156 -74 -49 -137 -86 -140 -82 -8 8 -8 625 0 622 4 -2 100
-64 214 -138z"/>
<path d="M3258 1671 c-43 -21 -78 -75 -78 -120 l0 -36 -1232 0 c-761 0 -1244
-3 -1263 -9 -35 -11 -84 -63 -86 -91 -6 -74 11 -113 64 -145 31 -19 61 -20
1275 -20 1176 0 1242 -1 1243 -17 3 -64 21 -101 63 -128 78 -51 191 4 201 98
2 17 4 35 4 40 1 4 220 7 489 7 465 0 488 1 519 20 65 39 84 110 49 178 -34
66 -28 66 -568 66 -269 1 -488 3 -489 6 0 3 -2 22 -4 42 -8 93 -106 150 -187
109z"/>
</g>
</svg>
